<?xml version="1.0" standalone="no"?>
<!DOCTYPE svg PUBLIC "-//W3C//DTD SVG 20010904//EN"
 "http://www.w3.org/TR/2001/REC-SVG-20010904/DTD/svg10.dtd">
<svg version="1.0" xmlns="http://www.w3.org/2000/svg"
 width="1300.000000pt" height="863.000000pt" viewBox="0 0 1300.000000 863.000000"
 preserveAspectRatio="xMidYMid meet">
<metadata>
Created by potrace 1.14, written by Peter Selinger 2001-2017
</metadata>
<g transform="translate(0.000000,863.000000) scale(0.100000,-0.100000)"
fill="#000000" stroke="none">
<path d="M8322 6645 c-35 -8 -87 -23 -117 -34 -72 -27 -312 -148 -320 -161 -4
-6 -25 -23 -48 -37 -75 -47 -231 -180 -277 -235 -24 -30 -74 -74 -110 -99
l-65 -44 -3 -63 c-5 -97 7 -109 106 -110 82 0 105 -7 144 -43 13 -12 39 -31
58 -43 40 -25 50 -64 27 -99 -22 -34 -100 -72 -242 -118 -107 -34 -151 -43
-247 -50 -80 -5 -162 -19 -260 -44 -78 -20 -146 -39 -151 -42 -5 -3 17 -32 49
-64 42 -43 64 -57 79 -54 23 5 199 52 331 89 51 14 125 40 165 57 41 17 92 38
114 47 22 9 42 19 45 22 3 3 22 14 43 24 46 24 70 14 75 -29 3 -22 -6 -36 -42
-70 -58 -53 -147 -101 -207 -109 -35 -5 -62 -19 -107 -55 -34 -27 -86 -61
-116 -76 -31 -15 -56 -29 -56 -30 0 -4 39 5 60 13 8 3 17 6 20 7 3 1 12 4 20
7 119 42 244 72 280 67 14 -3 35 -20 52 -44 27 -38 28 -43 23 -125 -7 -99 7
-153 45 -175 68 -39 92 -45 195 -52 100 -7 268 -2 341 10 50 9 128 29 147 39
10 5 41 13 69 18 46 9 52 8 69 -12 27 -30 24 -58 -8 -85 -28 -23 -28 -23 -8
-39 15 -11 40 -15 95 -14 41 1 94 -1 118 -5 39 -7 44 -6 49 14 3 11 10 21 15
21 6 0 8 -7 4 -15 -4 -12 20 -35 38 -35 13 0 36 34 36 55 0 23 -18 35 -60 40
-8 1 -22 5 -30 8 -15 7 -54 15 -76 16 -6 1 -17 14 -23 29 -8 18 -25 34 -47 42
-42 17 -43 25 -3 49 50 31 158 52 248 49 76 -3 84 -1 102 21 41 50 15 101 -63
127 -57 19 -118 72 -118 103 0 11 10 28 23 38 33 27 138 170 171 233 15 30 46
74 69 97 l41 43 -13 51 c-14 52 -9 176 9 237 6 23 2 40 -17 78 -14 27 -41 87
-60 134 -61 151 -147 256 -281 344 -121 80 -272 110 -400 81z"/>
<path d="M6834 6366 c-27 -23 -79 -72 -116 -108 -44 -42 -82 -69 -110 -78 -24
-8 -49 -20 -55 -26 -7 -7 -39 -27 -70 -45 -32 -18 -64 -37 -72 -43 -18 -14
-152 -66 -171 -66 -8 0 1 -16 24 -39 37 -38 40 -39 66 -26 54 28 206 134 248
173 36 33 42 36 42 19 0 -11 -18 -48 -39 -81 -21 -34 -42 -78 -45 -98 -4 -22
-16 -44 -29 -53 -16 -11 -18 -15 -5 -15 8 0 21 7 28 15 7 8 18 15 24 15 6 0
31 16 55 35 45 36 61 37 61 4 0 -10 6 -19 13 -19 17 0 80 40 74 47 -4 3 9 20
27 37 72 70 127 177 151 294 13 59 12 68 -2 84 -25 27 -45 22 -99 -26z"/>
<path d="M3030 6169 c-146 -10 -231 -30 -340 -82 -89 -42 -93 -46 -78 -66 11
-14 11 -14 -3 -4 -21 17 -46 -10 -87 -92 -62 -127 -72 -172 -72 -336 0 -136 2
-151 16 -145 14 5 15 4 4 -9 -30 -36 24 -396 74 -499 27 -54 121 -176 136
-176 5 0 21 12 37 26 33 31 195 134 275 175 102 52 259 98 438 130 147 26 497
20 645 -10 144 -30 135 -33 128 47 -5 59 -3 69 15 86 18 15 34 18 105 15 82
-4 117 -18 117 -48 0 -24 58 -41 114 -35 54 7 56 6 123 -43 98 -73 89 -69 393
-164 67 -21 254 -42 467 -54 l122 -6 53 47 53 48 -43 -45 c-23 -25 -40 -47
-38 -50 16 -16 522 12 661 37 24 4 39 -1 70 -26 l39 -31 18 35 c10 19 32 46
50 61 l33 27 -90 -6 c-49 -3 -108 -9 -131 -12 -30 -5 -45 -2 -56 10 -25 25
-64 36 -125 36 l-55 0 6 33 c12 62 78 93 245 118 175 27 281 49 314 65 26 14
209 66 235 67 20 1 14 10 -41 65 -29 29 -61 52 -72 52 -11 0 -40 -9 -64 -20
-24 -11 -56 -20 -71 -20 -15 0 -72 -11 -126 -25 -117 -30 -251 -47 -352 -44
-58 2 -77 -2 -95 -17 -12 -10 -16 -12 -9 -4 19 22 14 27 -25 24 -54 -5 -136 9
-141 24 -8 24 112 63 263 86 36 6 86 39 74 50 -2 2 -24 0 -49 -4 -25 -5 -82
-9 -126 -10 -141 0 -130 32 39 115 90 45 102 57 111 108 9 47 -10 50 -63 8
-20 -16 -63 -41 -96 -56 -33 -15 -94 -44 -135 -63 -129 -60 -143 -65 -225 -72
-44 -4 -87 -9 -95 -11 -12 -3 -16 7 -18 45 -3 43 -6 49 -33 59 -50 19 -41 25
111 77 36 12 108 37 160 55 52 18 108 35 123 39 62 15 347 150 347 165 0 5
-18 25 -40 45 -31 28 -49 36 -78 36 -40 0 -296 -89 -348 -121 -17 -11 -53 -22
-78 -25 -26 -3 -80 -18 -119 -34 -104 -41 -194 -57 -542 -95 -170 -19 -355
-41 -410 -49 -212 -32 -507 -58 -518 -47 -5 5 -11 50 -13 100 -3 104 -20 204
-40 243 -19 38 -92 69 -271 119 -136 37 -177 43 -458 69 -66 6 -129 12 -140
14 -13 2 -36 -11 -65 -38 -38 -35 -40 -36 -12 -6 34 38 39 51 20 49 -7 -1 -74
-6 -148 -10z m1290 -759 c13 -8 13 -13 -3 -41 l-18 -32 91 7 c50 4 159 16 243
26 87 12 249 22 379 26 193 5 230 3 249 -9 21 -15 21 -16 -17 -26 -115 -31
-190 -42 -394 -61 -124 -11 -299 -29 -390 -40 -91 -11 -184 -20 -207 -20 -47
0 -78 23 -67 49 4 9 8 31 9 49 2 40 11 49 61 67 47 17 45 17 64 5z"/>
<path d="M0 5048 l0 -553 104 -37 c57 -21 118 -38 135 -38 43 0 95 28 165 90
73 64 57 65 345 -30 117 -38 227 -70 245 -70 19 0 55 -9 81 -21 35 -15 53 -19
69 -11 21 9 21 9 -4 16 -66 19 -100 39 -95 57 7 21 -39 39 -102 39 -47 0 -123
20 -123 32 0 5 7 8 15 8 8 0 15 5 15 11 0 6 -7 9 -15 6 -8 -4 -17 -2 -20 4 -4
5 -11 7 -16 3 -5 -3 -15 -1 -22 4 -7 5 -37 15 -67 22 -30 7 -86 23 -125 35
-38 12 -98 26 -132 30 -35 4 -63 11 -63 16 0 5 -10 9 -23 9 -54 0 -91 68 -53
99 14 12 12 13 156 -40 30 -11 64 -22 75 -24 11 -2 61 -17 110 -33 94 -32 249
-81 395 -125 183 -55 279 -86 296 -95 11 -6 39 -16 64 -23 25 -7 54 -17 65
-23 11 -5 27 -11 35 -12 29 -5 275 -73 320 -88 83 -27 183 -56 197 -56 7 0 21
-5 31 -10 25 -15 201 -70 222 -70 10 0 22 -4 25 -10 3 -5 16 -10 29 -10 12 0
50 -9 84 -20 34 -11 83 -23 108 -27 l47 -6 -6 72 c-3 40 -10 78 -16 84 -5 7
-19 45 -31 85 -16 53 -27 72 -39 72 -9 0 -26 7 -37 15 -10 8 -28 15 -40 15
-11 0 -24 4 -30 8 -5 5 -38 17 -74 27 -36 11 -71 27 -77 36 -14 19 -60 31
-116 29 -24 0 -36 3 -32 10 3 5 -2 10 -12 10 -10 0 -56 14 -103 31 -80 28
-180 59 -207 63 -7 1 -15 5 -19 8 -3 4 -12 4 -20 1 -8 -3 -14 -1 -14 4 0 5
-19 10 -42 11 -29 1 -45 8 -55 22 -8 11 -23 20 -34 20 -11 0 -53 13 -92 29
-40 16 -99 36 -132 45 -33 10 -67 21 -76 26 -8 4 -22 4 -30 0 -10 -6 -33 0
-65 14 -52 25 -119 48 -144 51 -8 1 -24 6 -35 12 -11 6 -24 11 -30 11 -34 1
-95 15 -100 23 -4 5 -17 9 -31 9 -14 0 -23 4 -19 10 4 6 -7 13 -24 16 -17 4
-31 10 -31 15 0 5 -13 9 -30 9 -17 0 -33 7 -39 17 -5 10 -13 15 -17 11 -3 -4
-14 -4 -23 1 -9 5 -41 11 -71 14 -30 4 -74 16 -98 27 -41 20 -43 22 -29 43 22
34 94 69 156 76 l56 6 3 38 c5 54 -25 145 -57 178 -15 15 -45 32 -67 38 -153
41 -336 96 -521 155 l-23 7 0 -553z"/>
<path d="M4672 4923 l-42 -4 27 -22 c16 -12 51 -37 78 -56 151 -103 233 -175
291 -256 22 -30 47 -54 57 -55 9 0 17 -4 17 -10 0 -6 6 -9 13 -8 6 2 11 -3 9
-10 -1 -8 7 -16 18 -19 25 -7 25 -12 3 -29 -17 -12 -17 -14 -2 -41 17 -28 27
-65 34 -123 3 -18 9 -38 14 -44 7 -9 7 -16 0 -23 -11 -11 -16 -119 -7 -129 3
-2 104 -5 224 -6 231 -2 250 1 324 50 14 9 27 17 30 18 6 1 33 11 72 27 19 8
27 18 26 34 -2 19 -10 22 -73 29 -38 4 -99 7 -135 6 -44 -1 -71 4 -85 14 -34
26 0 34 146 34 130 0 137 1 142 21 3 11 15 23 26 26 12 3 21 8 21 12 -1 11
-45 38 -75 45 -53 12 -85 28 -85 42 0 18 41 34 88 34 31 0 34 2 22 14 -8 8
-58 36 -110 63 -146 76 -222 123 -217 136 6 18 119 10 207 -14 97 -27 164 -50
274 -94 90 -35 140 -44 151 -25 9 15 25 2 19 -15 -13 -32 64 -71 91 -46 6 4
31 14 57 21 38 10 49 18 57 43 15 40 14 44 -9 67 -16 16 -33 20 -95 20 -48 0
-87 6 -105 15 -28 15 -149 23 -167 12 -6 -4 -21 5 -33 18 -27 29 -49 31 -92 9
-35 -18 -69 -12 -193 33 -107 39 -118 39 -147 6 -13 -15 -40 -41 -59 -58 l-34
-30 25 29 c14 16 40 43 59 61 l34 32 -84 22 c-134 35 -253 72 -267 84 -21 16
-97 27 -237 31 -71 3 -159 7 -195 9 -36 2 -84 2 -108 0z"/>
<path d="M6543 4577 c-17 -7 -44 -22 -59 -34 -20 -16 -40 -22 -67 -21 -52 2
-72 -28 -44 -66 13 -18 15 -18 51 -1 31 15 42 16 57 7 21 -13 128 -16 144 -4
29 21 34 39 24 76 -7 25 -18 40 -35 46 -30 12 -30 12 -71 -3z"/>
<path d="M1536 4285 c5 -12 -2 -15 -32 -16 l-39 0 55 -18 c48 -16 55 -17 58
-4 3 12 13 14 45 10 43 -6 269 -72 342 -100 22 -8 112 -36 200 -62 88 -26 189
-58 225 -71 172 -61 190 -60 190 5 0 48 -8 56 -56 58 -22 1 -67 10 -100 19
-32 8 -77 21 -99 26 -22 6 -45 15 -51 19 -11 9 -144 43 -229 59 -27 5 -93 19
-145 30 -147 32 -302 59 -337 60 -25 0 -31 -4 -27 -15z"/>
<path d="M2639 3995 c-1 -17 -1 -85 1 -152 2 -138 -3 -163 -32 -163 -45 0
-264 -71 -315 -102 -49 -31 -107 -58 -125 -58 -7 0 -31 -7 -53 -15 -22 -8 -55
-14 -74 -15 -33 0 -64 -8 -141 -35 -20 -7 -48 -11 -63 -8 -23 5 -100 -16 -185
-48 -13 -5 -36 -9 -52 -9 -16 0 -41 -5 -57 -11 -54 -20 -373 -80 -386 -72 -17
10 28 44 84 64 76 28 91 45 61 69 -31 25 -108 54 -126 47 -17 -7 -66 -99 -86
-160 -16 -52 -22 -42 -11 19 8 44 8 47 -5 29 -9 -11 -31 -54 -51 -95 -41 -85
-41 -85 -48 -78 -9 9 16 99 41 151 13 27 24 55 24 63 0 17 38 88 79 149 86
126 127 184 157 215 45 48 43 63 -2 19 -48 -46 -175 -229 -225 -326 -22 -43
-47 -85 -55 -94 -8 -8 -14 -23 -14 -32 0 -9 -4 -17 -10 -17 -5 0 -14 -18 -20
-40 -6 -22 -16 -45 -23 -52 -7 -6 -11 -23 -9 -37 2 -20 -3 -29 -21 -37 -23
-10 -24 -9 -21 20 2 17 11 63 20 103 9 39 14 79 11 87 -9 23 -37 20 -37 -3 0
-11 -4 -22 -9 -25 -5 -3 -12 -18 -16 -33 -3 -16 -14 -36 -22 -45 -8 -10 -13
-24 -10 -31 3 -8 -1 -25 -10 -36 -8 -12 -13 -31 -10 -41 3 -10 -1 -27 -7 -37
-7 -10 -12 -45 -11 -78 1 -33 -2 -71 -7 -84 -5 -15 -4 -28 3 -37 6 -8 8 -25 5
-39 -5 -18 -2 -27 9 -31 8 -4 15 -14 15 -25 0 -10 9 -25 21 -33 12 -8 18 -19
15 -24 -9 -16 33 -25 49 -12 12 10 16 9 19 -1 2 -8 12 -43 21 -79 10 -36 24
-70 31 -76 8 -6 10 -14 6 -18 -4 -4 6 -6 23 -4 29 3 29 3 41 100 12 91 26 138
42 138 4 0 16 -7 26 -15 28 -21 38 -19 124 20 85 40 122 69 122 97 0 15 -8 18
-48 18 -50 0 -92 21 -92 45 0 27 62 48 305 101 61 14 121 27 135 30 14 3 32 8
40 11 8 3 27 6 42 7 41 2 41 9 0 49 l-37 37 -135 -25 c-74 -13 -175 -33 -225
-45 -121 -27 -235 -32 -242 -12 -9 22 10 46 43 53 16 4 83 21 149 39 66 17
159 40 208 50 48 11 97 25 109 31 13 7 41 9 73 5 52 -6 115 8 115 25 0 5 7 9
16 9 8 0 12 -4 9 -10 -3 -5 1 -10 9 -10 9 0 16 7 16 15 0 8 3 14 8 14 20 -4
69 24 68 38 -1 13 15 19 76 29 43 7 102 19 130 28 29 8 76 19 103 25 28 5 75
14 105 20 220 43 265 50 272 43 5 -5 -29 -17 -74 -27 -167 -36 -233 -54 -243
-68 -10 -14 -39 -21 -125 -33 -25 -3 -49 -10 -54 -15 -6 -5 -31 -9 -57 -9 -26
0 -50 -4 -54 -10 -3 -5 -11 -7 -18 -5 -7 3 -23 -4 -37 -15 -20 -15 -23 -21
-12 -32 10 -10 14 -10 21 0 9 15 100 20 121 7 13 -8 4 -12 -135 -49 -33 -9
-90 -26 -126 -37 -36 -11 -71 -19 -78 -17 -29 7 -19 -21 20 -56 25 -23 47 -35
56 -32 9 4 59 13 112 22 53 8 123 21 157 29 33 8 112 23 175 34 206 37 371 79
394 101 12 11 28 45 35 75 7 30 17 52 22 49 7 -4 13 71 11 131 -13 293 -25
401 -46 422 -16 16 -17 16 -18 -12z m20 -538 c-8 -31 -13 -36 -32 -32 -12 3
-77 -8 -144 -25 -66 -16 -137 -30 -155 -30 -19 0 -57 -7 -84 -15 -68 -20 -131
-28 -117 -14 6 6 17 12 24 13 8 2 21 6 29 9 8 3 39 11 69 18 30 6 65 18 79 25
14 7 29 11 33 8 13 -8 201 27 237 43 18 9 37 25 43 35 17 32 30 7 18 -35z"/>
<path d="M241 3914 c-36 -15 -41 -34 -8 -34 12 0 28 -4 36 -9 21 -13 2 -33
-65 -72 -58 -33 -69 -43 -59 -59 9 -15 202 94 233 132 16 20 5 29 -60 44 -36
8 -54 8 -77 -2z"/>
<path d="M515 3836 c-17 -7 -36 -25 -42 -39 -15 -33 -71 -63 -86 -48 -6 6 -26
11 -44 11 -35 0 -56 -22 -69 -74 -6 -27 -5 -29 17 -23 13 4 29 7 35 7 5 0 20
9 32 21 l23 20 17 -20 c12 -16 34 -23 79 -27 74 -8 105 7 119 56 5 17 12 30
16 28 10 -5 58 43 58 58 0 26 -24 27 -46 1 -33 -38 -48 -35 -40 8 6 32 5 35
-16 35 -13 -1 -37 -7 -53 -14z"/>
<path d="M3043 3798 c-40 -13 -41 -22 -5 -53 l27 -23 -30 -26 c-16 -14 -33
-26 -36 -26 -7 0 -7 4 -9 -193 0 -92 1 -171 4 -175 8 -13 9 -235 1 -254 -5
-13 1 -22 25 -35 18 -10 57 -33 89 -51 31 -19 84 -45 119 -59 66 -27 75 -37
41 -46 -24 -6 -24 -7 10 -127 22 -75 36 -130 58 -217 13 -53 20 -66 49 -83
120 -75 451 -83 709 -19 119 30 194 59 200 78 6 18 17 189 18 256 0 88 -5 91
-138 95 -91 2 -104 -3 125 52 135 32 340 108 432 161 71 40 208 139 208 151 0
4 -16 -6 -35 -23 -65 -57 -86 -37 -89 84 0 33 -4 65 -7 70 -4 6 -6 42 -7 82 0
39 -5 86 -11 105 -5 18 -14 53 -18 78 -6 36 -13 45 -33 50 -14 4 -33 3 -42 -2
-10 -5 -34 -9 -53 -10 -19 -1 -35 -5 -35 -9 0 -5 -6 -6 -13 -4 -6 3 -17 -5
-22 -17 -6 -13 -19 -23 -30 -24 -11 0 -31 -5 -45 -11 -23 -9 -54 2 -45 17 2 3
-12 4 -31 2 -19 -2 -34 -6 -34 -8 0 -2 14 -17 30 -34 17 -17 29 -40 29 -53
l-2 -22 -4 22 c-2 12 -19 35 -37 51 -32 28 -37 29 -112 25 -44 -3 -95 -10
-114 -16 -19 -6 -39 -10 -43 -9 -5 1 -23 -8 -40 -20 -22 -15 -28 -17 -18 -5
12 16 8 17 -55 17 -38 0 -102 9 -143 20 -41 11 -86 20 -100 20 -27 0 -271 60
-348 86 -40 13 -180 72 -311 129 -37 17 -35 17 -79 3z"/>
<path d="M210 3444 c-123 -33 -206 -137 -127 -158 70 -19 150 2 172 45 14 26
14 30 -5 49 -27 27 -19 37 35 46 45 6 72 24 38 24 -10 0 -27 2 -38 5 -11 2
-45 -3 -75 -11z"/>
<path d="M10633 2959 c21 -13 22 -45 1 -57 -15 -8 -15 -12 2 -37 17 -27 17
-28 -1 -41 -24 -18 -36 -18 -61 1 -24 18 -54 19 -54 1 0 -19 50 -38 104 -38
62 -1 90 23 82 71 -3 20 0 41 7 49 9 11 6 19 -16 38 -16 13 -40 24 -55 24 -23
-1 -25 -2 -9 -11z"/>
<path d="M11023 2865 c-19 -13 -21 -19 -11 -40 10 -22 8 -29 -12 -50 -23 -24
-23 -25 -5 -45 23 -25 35 -25 35 0 0 26 36 46 56 29 17 -14 18 -41 2 -58 -11
-10 -4 -12 32 -9 l45 3 0 42 c0 23 6 47 13 54 16 17 15 34 -3 49 -13 11 -18
10 -31 -8 -29 -41 -92 -13 -66 29 11 17 9 19 -11 19 -12 0 -32 -7 -44 -15z"/>
<path d="M8103 2604 c37 -20 32 -34 -21 -61 -2 -1 4 -13 14 -28 17 -25 16 -27
-4 -47 -22 -22 -37 -20 -84 14 -14 10 -21 10 -34 -4 -15 -15 -15 -17 7 -29 13
-7 54 -13 90 -14 84 0 114 21 104 72 -4 24 -1 38 10 49 8 8 15 19 15 24 0 16
-57 40 -92 40 l-33 -1 28 -15z"/>
<path d="M10552 2532 c-21 -10 -31 -21 -27 -30 8 -21 -22 -62 -45 -62 -10 0
-23 8 -29 18 -7 13 -12 14 -22 5 -6 -6 -9 -18 -6 -26 6 -17 71 -32 90 -21 8 5
7 2 -2 -9 -32 -39 16 -62 64 -31 26 17 34 44 14 44 -8 0 -9 11 -5 32 l6 31
-22 -19 c-16 -12 -14 -9 5 12 26 29 35 58 20 67 -5 3 -23 -2 -41 -11z"/>
<path d="M10715 2500 c-4 -6 6 -10 23 -10 16 0 36 -7 43 -16 11 -14 10 -18 -5
-30 -10 -7 -24 -15 -30 -17 -6 -2 0 -13 13 -24 16 -13 22 -26 18 -37 -11 -27
-36 -30 -75 -9 -52 28 -82 15 -47 -21 8 -8 40 -18 70 -21 92 -12 144 25 115
81 -11 19 -10 25 3 39 20 20 14 37 -22 58 -32 19 -96 23 -106 7z"/>
<path d="M10955 2451 c-17 -8 -16 -10 11 -10 16 -1 39 -7 49 -15 18 -13 17
-14 -9 -31 l-27 -18 21 -22 c46 -49 -1 -84 -65 -49 -26 14 -38 15 -46 7 -17
-17 29 -43 89 -50 39 -4 58 -2 78 12 23 15 26 21 20 56 -4 24 -2 46 6 59 11
17 9 23 -8 41 -23 23 -88 34 -119 20z"/>
<path d="M7430 2270 c-63 -21 -100 -58 -100 -101 0 -38 28 -65 79 -74 57 -9
100 2 113 30 17 38 2 74 -39 91 -43 19 -36 29 36 47 46 12 50 15 30 20 -37 10
-60 8 -119 -13z"/>
<path d="M7644 2228 c-59 -45 -58 -50 7 -80 62 -28 79 -50 62 -77 -17 -28 -50
-24 -92 10 -34 27 -43 30 -56 19 -23 -19 -19 -26 25 -44 62 -25 126 -21 155 9
28 28 31 53 10 81 -22 29 -18 42 12 46 47 5 40 34 -11 47 -63 16 -79 14 -112
-11z"/>
<path d="M8243 2110 c-37 -15 -26 -30 21 -30 82 0 64 -54 -33 -102 -36 -18
-68 -34 -70 -36 -15 -9 24 -22 87 -30 62 -7 74 -6 87 8 20 22 19 34 -1 26 -18
-7 -64 3 -64 13 0 4 17 17 38 29 55 31 76 56 68 86 -9 38 -81 57 -133 36z"/>
<path d="M10425 2083 c-72 -36 -125 -74 -125 -89 0 -7 21 -19 48 -26 26 -8 48
-19 48 -26 1 -7 2 -16 3 -22 2 -18 45 -10 75 14 25 21 27 25 11 33 -15 9 -16
15 -4 67 7 34 9 60 3 65 -5 6 -30 -1 -59 -16z"/>
<path d="M6583 1993 c-26 -15 -43 -32 -43 -43 0 -17 -27 -33 -55 -35 -5 0 -17
-15 -25 -33 -10 -23 -23 -35 -43 -39 -17 -4 -33 -16 -43 -35 -10 -19 -25 -31
-45 -35 -19 -4 -35 -16 -45 -34 -10 -19 -26 -32 -53 -39 -21 -6 -42 -17 -45
-26 -3 -8 -21 -21 -40 -29 -19 -8 -51 -26 -72 -40 -20 -14 -44 -25 -52 -25 -9
0 -30 -14 -47 -30 -17 -17 -42 -33 -55 -35 -13 -3 -53 -33 -89 -67 -36 -35
-51 -47 -33 -28 17 20 32 38 32 41 0 16 -35 2 -63 -24 -34 -32 -70 -42 -99
-26 -14 8 -20 3 -32 -26 -14 -33 -18 -35 -60 -35 -41 0 -76 -18 -76 -39 0 -5
-22 -11 -48 -13 -34 -3 -55 -12 -74 -31 -22 -22 -33 -26 -58 -20 -24 4 -39 0
-62 -17 -20 -14 -47 -24 -74 -25 -26 -1 -52 -9 -63 -19 -13 -12 -39 -19 -71
-21 -29 -2 -59 -10 -69 -19 -10 -9 -35 -16 -57 -16 -22 0 -56 -9 -77 -20 -20
-11 -53 -20 -72 -20 -20 0 -50 -6 -68 -13 -18 -8 -53 -14 -78 -14 -26 -1 -57
-6 -69 -13 -11 -6 -34 -8 -50 -5 -19 4 -44 0 -73 -13 -31 -14 -49 -17 -61 -10
-19 11 -79 3 -106 -14 -22 -14 -50 -3 -57 22 -7 26 -19 26 -26 0 -3 -11 -13
-20 -23 -20 -9 0 -26 -8 -37 -17 -18 -17 -19 -17 -33 2 -8 11 -14 43 -14 81 0
118 -40 154 -69 62 -12 -41 -12 -52 -1 -73 12 -22 11 -27 -6 -40 -10 -8 -28
-14 -39 -12 -17 2 -21 12 -27 66 -8 73 -19 91 -46 75 -12 -8 -18 -30 -23 -82
-5 -66 -19 -102 -41 -102 -5 0 -6 4 -3 10 3 5 -2 22 -12 37 -10 15 -13 24 -7
21 13 -8 15 22 3 38 -5 6 -23 11 -39 12 -25 1 -33 -5 -45 -34 -18 -44 -50 -45
-90 -4 -43 45 -77 38 -90 -17 -6 -23 -15 -47 -22 -54 -15 -15 -41 0 -57 32
-16 33 -38 30 -56 -8 -27 -58 -88 -41 -115 32 -10 25 -21 45 -24 45 -17 0 -31
-27 -31 -61 0 -45 -12 -50 -62 -31 -29 11 -38 21 -38 38 0 55 -39 151 -40 102
-2 -44 -11 -122 -15 -128 -3 -4 -22 -4 -44 1 -22 5 -56 9 -78 9 -115 2 -160 6
-180 18 -12 6 -42 12 -68 12 -25 0 -57 7 -71 16 -17 12 -36 15 -61 11 -26 -5
-45 -1 -67 12 -18 11 -45 18 -64 16 -21 -2 -41 5 -58 17 -14 12 -47 23 -72 26
-26 2 -54 10 -62 17 -8 7 -33 16 -55 20 -21 4 -51 13 -65 20 -14 7 -43 16 -64
20 -36 7 -40 5 -97 -51 -32 -32 -59 -61 -59 -65 0 -6 48 -35 165 -102 78 -44
280 -131 355 -152 14 -4 30 -11 35 -16 47 -36 679 -185 875 -205 14 -1 25 -3
25 -5 0 -1 68 -7 150 -14 123 -10 531 -11 800 -2 22 1 60 -2 85 -5 28 -4 54
-1 70 7 14 7 40 19 58 26 21 7 44 28 60 53 15 23 31 44 37 48 16 12 64 9 88
-4 33 -18 86 -18 79 0 -4 12 2 14 32 8 27 -5 41 -3 52 9 8 8 23 15 33 15 10 0
21 3 25 7 4 4 18 9 33 11 14 2 43 12 64 23 21 10 44 19 51 19 7 0 30 9 51 20
20 11 47 20 59 20 13 0 55 16 93 35 39 19 82 37 98 40 15 4 27 11 27 16 0 5 3
8 8 7 10 -2 104 41 122 57 8 7 37 20 64 29 48 16 106 45 116 57 14 16 114 79
126 79 8 0 14 5 14 10 0 6 12 16 28 23 15 6 31 17 35 24 4 7 14 13 21 13 8 0
29 14 47 31 17 16 42 35 53 41 12 6 28 17 36 25 8 7 45 37 81 66 37 30 86 75
110 102 24 27 74 78 110 114 36 36 80 86 97 111 17 25 42 57 56 71 16 18 21
30 14 37 -6 6 -3 16 10 28 19 20 46 65 56 97 4 11 11 15 18 11 8 -5 8 -1 -2
12 -8 10 -14 20 -15 21 0 1 -19 -10 -42 -24z"/>
<path d="M5918 1993 c-1 -5 -23 -18 -48 -30 -25 -13 -52 -27 -60 -32 -8 -5
-49 -26 -90 -46 -41 -21 -108 -53 -147 -73 -67 -33 -94 -62 -58 -62 46 0 187
68 322 155 101 65 114 75 108 86 -7 11 -22 12 -27 2z"/>
<path d="M11290 1906 c-20 -12 -24 -21 -22 -49 3 -28 -1 -37 -17 -42 -12 -3
-30 -3 -42 0 -17 6 -18 9 -7 23 10 12 7 12 -14 -2 -40 -26 -35 -42 17 -55 35
-9 45 -16 45 -31 0 -12 10 -25 25 -32 23 -10 29 -8 57 20 26 26 29 33 19 46
-9 11 -11 33 -6 76 6 54 5 60 -12 60 -10 -1 -29 -7 -43 -14z"/>
<path d="M1826 1861 c-7 -11 30 -42 77 -67 21 -10 45 -29 53 -41 8 -13 31 -31
52 -42 21 -11 55 -34 75 -52 109 -96 340 -195 592 -253 127 -29 479 -81 615
-91 134 -9 300 -13 300 -6 0 3 -33 39 -72 81 l-73 75 86 -83 87 -82 93 5 c326
17 422 26 609 56 129 21 269 53 298 69 19 10 182 59 277 84 149 39 322 102
405 149 l65 37 -45 0 -45 0 53 35 c104 71 56 71 -164 1 -307 -98 -533 -156
-701 -181 -262 -39 -642 -65 -895 -60 -93 1 -145 -1 -141 -7 3 -6 -5 -3 -18 5
-15 9 -64 17 -129 21 -220 14 -414 42 -577 82 -194 47 -239 54 -259 35 -17
-15 -17 -15 -6 0 14 19 18 17 -158 74 -63 21 -131 46 -150 55 -34 17 -171 68
-257 95 -23 8 -45 10 -47 6z"/>
<path d="M7200 1828 l-21 -23 58 -5 c94 -8 94 -13 12 -96 -61 -62 -70 -74 -51
-74 15 0 54 30 112 86 50 48 90 90 90 95 0 8 -125 39 -159 39 -11 0 -30 -10
-41 -22z"/>
<path d="M935 1755 c-5 -2 -23 -6 -38 -10 -24 -5 -27 -8 -17 -20 15 -19 -11
-62 -74 -124 -25 -24 -43 -48 -40 -53 3 -4 22 -8 44 -8 34 0 42 5 72 48 19 26
54 69 77 96 23 26 40 53 38 60 -3 11 -43 18 -62 11z"/>
<path d="M1127 1706 c-56 -20 -102 -55 -131 -100 -30 -46 -32 -65 -11 -92 15
-18 16 -18 28 -1 30 46 100 134 119 150 26 22 48 22 48 0 0 -21 -72 -117 -110
-145 -36 -26 -38 -38 -7 -38 38 1 100 35 139 77 33 38 37 39 42 20 4 -15 -5
-30 -35 -58 -35 -32 -39 -40 -30 -57 15 -29 93 -56 137 -49 20 4 54 18 75 32
51 33 69 32 36 -3 -15 -15 -27 -39 -27 -53 0 -14 -5 -30 -12 -37 -23 -23 23
-25 76 -3 28 11 56 21 63 21 6 0 23 -16 37 -35 15 -19 31 -35 36 -35 12 0 164
-101 168 -112 2 -4 8 -8 14 -8 6 0 27 -13 47 -29 65 -52 78 -50 146 19 65 66
65 80 -3 80 -22 0 -41 8 -56 25 -13 14 -39 27 -63 31 -30 4 -44 13 -52 30 -6
13 -16 24 -23 25 -35 2 -53 10 -77 33 -15 14 -38 26 -50 26 -13 0 -34 11 -47
25 -13 14 -32 25 -43 25 -11 0 -32 11 -48 24 -15 13 -37 25 -48 27 -12 3 -21
14 -23 27 -2 14 -13 24 -30 28 -32 8 -72 42 -72 61 0 17 -28 17 -62 -1 -28
-15 -28 -15 -28 20 0 30 -4 37 -35 50 -41 17 -40 17 -88 0z"/>
<path d="M10237 1634 c-40 -40 -40 -49 1 -59 38 -8 106 -57 110 -79 2 -9 -5
-24 -15 -31 -17 -13 -17 -14 0 -15 24 0 57 36 57 63 0 13 -15 38 -35 57 -19
19 -35 38 -35 42 0 5 17 6 38 2 28 -4 41 -2 51 10 15 18 19 15 -62 35 -66 16
-68 15 -110 -25z"/>
<path d="M8049 1637 c-9 -7 -21 -21 -27 -33 -15 -28 7 -59 56 -80 l37 -15 -22
-18 c-12 -10 -41 -22 -65 -27 l-43 -8 52 -4 c58 -3 111 18 151 61 37 40 28
118 -15 129 -16 4 -18 0 -15 -26 4 -37 -29 -86 -59 -86 -29 0 -25 51 7 89 l26
31 -34 0 c-18 0 -40 -6 -49 -13z"/>
<path d="M10762 1531 c-11 -7 -11 -9 2 -14 9 -4 16 -17 16 -30 0 -13 6 -29 13
-37 10 -12 9 -12 -4 -2 -14 11 -17 7 -22 -24 -3 -20 -14 -45 -23 -55 -16 -17
-15 -19 10 -29 15 -5 37 -10 49 -10 19 0 22 6 22 38 0 20 -4 43 -8 49 -5 9 -3
11 6 7 10 -4 17 9 25 48 5 29 8 56 5 60 -6 11 -75 10 -91 -1z"/>
<path d="M11213 1440 c-25 -15 -32 -27 -35 -57 -3 -36 -5 -38 -38 -37 -19 0
-42 2 -50 5 -10 2 -15 -3 -15 -15 0 -14 11 -22 38 -30 24 -7 42 -20 50 -36 17
-34 46 -36 80 -4 26 24 27 27 13 43 -14 15 -14 26 -5 75 14 70 5 83 -38 56z"/>
<path d="M7003 1358 c-13 -13 -23 -26 -23 -29 0 -2 28 -5 61 -6 92 -2 94 -12
15 -92 -101 -102 -78 -111 32 -12 122 109 124 115 64 134 -92 31 -124 31 -149
5z"/>
<path d="M7275 1301 c-32 -19 -81 -69 -74 -74 2 -1 26 -12 53 -22 62 -25 93
-63 77 -94 -15 -27 8 -30 31 -3 26 28 26 55 0 100 l-24 42 29 0 28 1 -37 34
c-44 41 -44 41 -83 16z"/>
<path d="M500 1213 c-26 -48 -65 -102 -91 -126 -28 -26 -24 -37 15 -37 28 0
39 7 57 33 13 17 44 58 71 90 26 32 48 63 48 68 0 5 -18 9 -40 9 -35 0 -42 -4
-60 -37z"/>
<path d="M10112 1141 c-18 -22 -32 -42 -32 -44 0 -2 19 -10 42 -18 56 -18 112
-71 103 -98 -8 -28 20 -29 35 -2 17 33 11 59 -20 94 -16 19 -30 37 -30 40 0 3
17 7 38 9 55 4 48 29 -13 45 -76 19 -89 17 -123 -26z"/>
<path d="M10428 1095 c37 -16 41 -38 10 -59 -21 -15 -21 -16 -3 -49 10 -19 15
-42 12 -51 -9 -23 -59 -20 -91 5 -19 15 -31 18 -38 11 -18 -18 -1 -40 39 -51
52 -15 87 -14 130 4 l36 15 -6 52 c-4 31 -2 57 4 64 28 34 -21 74 -89 74 l-37
-1 33 -14z"/>
<path d="M1363 1053 c-10 -3 -10 -9 0 -25 10 -17 8 -23 -20 -47 -24 -20 -33
-36 -33 -58 0 -56 -55 -81 -95 -43 -25 24 -55 18 -55 -11 0 -12 9 -21 28 -25
15 -3 41 -9 57 -13 62 -15 155 39 155 90 0 10 14 34 31 54 35 39 33 60 -6 75
-28 11 -43 11 -62 3z"/>
<path d="M10713 1023 c-16 -11 -23 -26 -23 -49 0 -44 -29 -61 -71 -43 -24 9
-33 9 -42 0 -9 -10 -8 -16 7 -27 11 -8 28 -14 38 -14 11 0 28 -15 39 -35 25
-42 52 -45 86 -9 21 23 23 30 14 53 -7 17 -7 39 -1 66 18 77 4 94 -47 58z"/>
<path d="M6806 861 c-39 -8 -72 -52 -58 -77 8 -15 4 -26 -24 -56 -29 -32 -33
-42 -24 -58 17 -31 46 -25 53 10 8 38 53 53 74 24 7 -10 11 -25 7 -34 -18 -42
-17 -50 8 -50 44 0 68 26 68 74 0 36 5 47 25 60 27 18 32 45 13 64 -19 19 -33
14 -45 -18 -13 -34 -42 -40 -64 -14 -11 13 -11 21 3 44 15 26 14 42 -1 39 -3
-1 -19 -4 -35 -8z"/>
<path d="M7061 791 c-39 -11 -38 -31 1 -31 39 0 58 -15 58 -45 0 -28 -28 -53
-93 -85 -28 -14 -52 -31 -54 -37 -5 -15 96 -46 134 -41 38 4 36 31 -2 38 -46
8 -43 35 5 54 46 18 90 60 90 86 0 41 -82 77 -139 61z"/>
<path d="M7363 712 c24 -26 21 -47 -7 -66 -22 -14 -23 -18 -13 -46 22 -59 -28
-89 -82 -49 -28 21 -61 21 -61 0 0 -34 86 -60 155 -47 52 10 75 37 75 89 0 23
7 51 15 61 20 26 19 32 -7 56 -13 12 -35 20 -56 20 -33 0 -34 -1 -19 -18z"/>
<path d="M9995 635 c-19 -20 -35 -40 -35 -44 0 -5 15 -15 32 -22 41 -17 108
-77 108 -96 0 -8 7 -13 18 -11 28 5 27 52 -2 95 l-26 38 32 11 c45 15 46 31 1
43 -97 25 -91 26 -128 -14z"/>
<path d="M3302 550 c-26 -11 -69 -56 -78 -83 -8 -26 22 -67 50 -67 19 0 26 7
31 30 14 62 75 108 75 55 0 -17 -19 -43 -61 -84 -33 -33 -66 -62 -72 -64 -22
-8 3 -21 37 -20 77 2 176 85 176 148 0 18 -3 41 -6 50 -15 37 -98 56 -152 35z"/>
<path d="M10516 513 c-20 -21 -36 -41 -36 -46 0 -4 19 -17 43 -27 60 -27 94
-55 101 -85 8 -30 22 -32 36 -4 13 23 -1 69 -26 90 -20 16 -17 39 5 39 27 0
45 24 28 38 -11 9 -85 31 -108 32 -4 0 -23 -17 -43 -37z"/>
<path d="M1004 495 c-16 -7 -44 -30 -61 -51 -27 -34 -35 -38 -71 -37 -51 2
-73 -19 -37 -35 19 -9 25 -19 25 -42 0 -26 4 -30 28 -30 15 0 33 4 40 9 15 9
42 57 42 74 0 5 20 33 45 62 48 56 44 73 -11 50z"/>
<path d="M3526 470 c-37 -24 -46 -38 -46 -77 0 -24 -8 -37 -31 -53 -23 -17
-29 -29 -27 -49 4 -38 42 -41 60 -4 9 19 22 29 42 31 26 3 28 1 24 -25 -3 -15
-9 -36 -13 -45 -6 -15 -2 -18 23 -18 39 0 79 33 87 73 4 17 23 47 41 65 38 37
43 61 16 85 -27 25 -52 22 -52 -6 0 -13 -5 -28 -12 -35 -15 -15 -48 -16 -48
-1 0 20 21 49 36 49 9 0 14 6 12 13 -7 20 -79 18 -112 -3z"/>
<path d="M10921 418 c-17 -18 -31 -38 -31 -44 0 -7 17 -20 38 -29 53 -25 102
-64 102 -81 0 -24 35 -12 38 14 2 12 -6 37 -17 56 -27 43 -26 52 4 60 37 9 30
34 -12 45 -64 18 -89 14 -122 -21z"/>
<path d="M3844 409 c-3 -6 -1 -16 5 -22 18 -18 12 -44 -15 -62 -22 -14 -25
-22 -19 -51 5 -28 1 -38 -19 -59 -31 -31 -37 -31 -66 0 -27 29 -42 31 -60 9
-22 -25 7 -41 90 -48 95 -8 135 11 146 71 3 21 17 55 30 75 30 47 30 52 -2 77
-29 22 -79 28 -90 10z"/>
<path d="M6541 309 c-18 -17 -22 -29 -17 -51 4 -23 0 -35 -25 -60 -32 -34 -36
-71 -8 -76 10 -2 25 11 37 33 12 19 28 35 36 35 24 0 46 -39 36 -65 -10 -27
-5 -35 25 -35 31 0 55 31 58 74 2 20 13 46 25 59 26 28 28 55 6 64 -11 4 -23
-3 -36 -20 -35 -48 -82 -25 -71 36 5 23 2 27 -19 27 -13 0 -35 -10 -47 -21z"/>
<path d="M4264 299 c-3 -6 -17 -9 -30 -6 -20 3 -25 -1 -30 -22 -6 -29 -44
-111 -71 -154 -17 -27 -17 -29 1 -42 24 -18 52 -4 69 33 6 15 22 44 34 64 13
21 23 44 23 53 0 8 9 23 20 32 11 10 20 25 20 35 0 20 -25 24 -36 7z"/>
</g>
</svg>
