<?xml version="1.0" standalone="no"?>
<!DOCTYPE svg PUBLIC "-//W3C//DTD SVG 20010904//EN"
 "http://www.w3.org/TR/2001/REC-SVG-20010904/DTD/svg10.dtd">
<svg version="1.0" xmlns="http://www.w3.org/2000/svg"
 width="645.000000pt" height="400.000000pt" viewBox="0 0 645.000000 400.000000"
 preserveAspectRatio="xMidYMid meet">
<metadata>
Created by potrace 1.14, written by Peter Selinger 2001-2017
</metadata>
<g transform="translate(0.000000,400.000000) scale(0.100000,-0.100000)"
fill="#000000" stroke="none">
<path d="M563 3513 c-89 -268 -161 -489 -158 -491 2 -3 12 -1 22 3 10 5 22 7
27 6 4 -1 15 4 24 11 12 10 14 10 8 1 -5 -10 3 -13 33 -13 22 0 42 5 44 13 4
10 6 10 6 0 1 -15 57 -18 65 -4 4 5 17 47 30 93 82 282 236 817 241 841 l7 27
-93 0 -94 0 -162 -487z"/>
<path d="M1961 3947 c31 -29 120 -110 198 -181 78 -71 141 -133 141 -137 0 -4
-9 -11 -20 -14 -11 -3 -20 -10 -20 -14 0 -4 -18 -158 -40 -342 -22 -183 -40
-345 -40 -358 l0 -24 123 8 c67 3 125 10 130 14 4 4 9 65 12 137 5 136 25 387
30 392 8 8 40 -20 179 -151 124 -118 152 -140 184 -144 23 -3 44 1 55 9 18 13
17 15 -2 40 -22 27 -27 57 -13 74 5 5 14 28 21 51 11 39 15 43 65 57 30 9 61
16 70 16 35 0 97 -40 196 -127 57 -51 105 -91 107 -90 1 2 -2 50 -7 108 -5 57
-10 165 -10 239 0 74 -3 145 -6 158 -7 24 -24 30 -24 8 0 -17 -18 -31 -28 -21
-3 3 0 10 8 15 10 7 -12 10 -66 10 -96 0 -94 2 -94 -105 0 -41 -5 -77 -10 -80
-6 -4 -22 1 -36 10 -29 19 -168 140 -270 235 -39 37 -95 83 -125 103 -30 20
-85 63 -124 96 l-70 60 -285 0 -285 0 56 -52z m718 -341 c158 -148 177 -169
166 -186 -10 -16 -17 -12 -67 33 -27 23 -104 92 -172 152 -123 109 -149 145
-103 145 15 0 73 -48 176 -144z"/>
<path d="M3927 3858 c7 -79 26 -295 42 -481 16 -186 31 -340 33 -342 7 -7 48
7 48 16 0 5 -6 8 -12 6 -8 -1 -14 11 -16 32 -3 32 -2 34 14 20 9 -8 23 -29 31
-46 7 -18 16 -33 19 -33 3 0 2 5 -1 10 -4 6 -1 18 6 27 12 14 14 13 20 -8 4
-20 11 -24 40 -21 25 1 30 0 19 -8 -13 -8 -12 -10 3 -10 9 0 17 7 17 17 0 15
1 15 13 -2 8 -10 16 -14 19 -9 5 8 -13 176 -26 246 -2 14 -10 71 -16 125 -6
54 -22 184 -35 288 -13 105 -27 218 -30 253 l-7 62 -97 0 -97 0 13 -142z"/>
<path d="M1396 3472 c-4 -7 -67 -281 -117 -510 -11 -52 -18 -96 -15 -99 2 -3
58 -2 124 2 l119 7 16 92 c10 50 33 179 53 286 19 107 38 203 40 213 5 15 -5
17 -105 17 -60 0 -112 -3 -115 -8z"/>
<path d="M385 2976 c-38 -112 -46 -138 -44 -140 2 -1 57 0 121 2 l118 4 19 62
c18 55 18 62 4 73 -21 16 -213 15 -218 -1z"/>
<path d="M3150 2692 c-42 -13 -155 -100 -231 -179 -77 -78 -114 -132 -156
-225 -23 -53 -3 -28 28 35 17 34 45 81 62 104 35 50 50 50 137 -2 68 -40 112
-55 159 -55 58 0 67 14 23 34 -27 12 -43 28 -55 57 -9 21 -17 43 -17 49 0 15
41 39 56 33 10 -3 12 0 9 10 -8 19 16 29 85 36 l55 7 -42 40 c-42 43 -87 65
-113 56z"/>
<path d="M3618 2217 c21 -22 22 -29 16 -145 -3 -66 -7 -129 -8 -138 -1 -11 21
-29 64 -53 50 -27 65 -40 62 -55 -7 -34 27 -103 56 -114 70 -27 221 -32 292
-11 40 12 40 11 54 86 0 5 -24 10 -54 13 l-55 5 90 18 c95 19 208 64 199 78
-3 5 1 6 9 4 7 -3 29 5 48 18 32 21 34 26 32 72 -4 67 -13 138 -19 144 -3 3
-24 -4 -47 -15 -92 -46 -278 -56 -421 -23 -101 24 -164 50 -256 103 -70 41
-93 46 -62 13z"/>
<path d="M1215 1768 c-4 -12 -51 -260 -91 -483 -9 -49 -20 -97 -24 -106 -4 -8
-16 -53 -25 -99 -20 -96 -19 -97 70 -145 28 -15 88 -51 135 -80 82 -50 479
-287 765 -455 77 -46 151 -90 165 -98 l24 -15 -56 -19 c-59 -19 -91 -27 -304
-83 -279 -73 -570 -115 -928 -135 -162 -9 -185 -15 -186 -42 0 -5 371 -8 825
-8 727 0 825 2 825 15 0 18 -1 18 46 -1 l38 -16 130 65 c72 36 172 93 221 125
159 105 303 265 343 382 13 35 55 337 53 377 -1 32 13 36 56 14 193 -99 527
-181 735 -181 73 0 252 25 328 46 30 9 73 20 95 27 22 6 49 19 59 29 11 10 23
18 27 18 12 0 150 68 204 100 28 17 60 36 73 42 12 6 22 15 22 20 0 4 5 8 10
8 6 0 18 8 28 18 10 9 35 32 57 50 21 17 35 35 31 39 -4 4 -10 3 -14 -3 -4 -6
-17 -14 -29 -18 -13 -4 -23 -12 -23 -17 0 -5 -9 -9 -20 -9 -11 0 -23 -7 -26
-15 -4 -8 -17 -15 -30 -15 -14 0 -27 -7 -30 -15 -4 -8 -17 -15 -30 -15 -13 0
-24 -4 -24 -10 0 -5 -11 -10 -24 -10 -13 0 -29 -7 -36 -15 -7 -8 -17 -12 -22
-9 -5 3 -17 -1 -27 -10 -10 -9 -25 -14 -33 -11 -8 3 -21 -1 -28 -9 -8 -10 -21
-14 -36 -10 -15 4 -24 2 -24 -5 0 -6 -13 -11 -29 -11 -17 0 -33 -5 -37 -11 -3
-6 -17 -9 -30 -6 -14 2 -27 0 -30 -4 -8 -14 -52 -11 -57 4 -3 7 -6 5 -6 -5 -1
-13 -9 -18 -30 -18 -17 0 -33 -5 -36 -10 -4 -6 -12 -7 -18 -3 -20 13 -41 12
-49 0 -6 -9 -10 -9 -16 0 -6 10 -14 9 -35 -2 -15 -7 -29 -10 -32 -5 -6 10 -24
8 -44 -5 -10 -5 -16 -4 -19 3 -2 7 -8 9 -14 6 -15 -10 -118 -12 -118 -3 0 4
-13 4 -30 -1 -18 -5 -32 -5 -36 1 -3 6 -19 7 -35 4 -19 -4 -29 -3 -29 5 0 6
-4 8 -10 5 -13 -8 -180 16 -180 26 0 5 -13 6 -30 3 -19 -4 -30 -2 -30 5 0 6
-13 11 -30 11 -16 0 -30 5 -30 11 0 7 -11 9 -26 6 -16 -3 -28 0 -31 9 -3 8
-16 14 -29 14 -22 0 -24 4 -24 49 0 28 -4 53 -10 56 -6 4 -10 -12 -10 -39 0
-34 -4 -46 -15 -46 -10 0 -16 16 -21 50 -9 70 -30 84 -25 18 2 -39 0 -49 -10
-46 -8 3 -15 23 -17 48 -2 24 -10 53 -18 64 -13 19 -14 16 -15 -34 l-1 -55 -9
48 c-11 53 -35 84 -62 79 -9 -2 -20 4 -23 12 -3 9 -15 16 -25 16 -11 0 -22 7
-25 15 -4 8 -15 15 -25 15 -10 0 -19 5 -19 10 0 6 -11 15 -25 20 -14 5 -25 14
-25 20 0 5 -7 10 -15 10 -9 0 -18 6 -21 14 -3 8 -14 16 -25 19 -10 3 -19 12
-19 21 0 9 -8 16 -20 16 -11 0 -20 7 -20 15 0 9 -7 18 -15 21 -8 4 -15 12 -15
19 0 7 -9 15 -20 18 -11 3 -20 12 -20 20 0 8 -7 17 -15 21 -8 3 -15 12 -15 20
0 7 -7 16 -15 20 -8 3 -15 12 -15 21 0 8 -4 15 -10 15 -5 0 -10 9 -10 19 0 10
-7 22 -16 25 -9 3 -14 13 -11 20 3 8 -1 17 -10 20 -8 4 -13 13 -9 21 3 9 0 15
-8 15 -17 0 -2 -67 26 -118 22 -40 23 -58 2 -66 -9 -3 -17 -6 -19 -6 -2 0 -1
18 2 39 l5 39 -98 32 c-309 100 -762 160 -1199 160 -115 0 -157 -3 -160 -12z
m1255 -493 c0 -8 -6 -15 -12 -16 -7 0 -3 -4 10 -9 30 -13 29 -40 -3 -40 -14 0
-25 3 -25 8 0 10 -79 2 -86 -9 -3 -5 14 -7 40 -4 40 5 46 3 46 -12 0 -13 2
-15 9 -5 8 13 31 13 42 0 3 -4 19 -4 37 1 20 6 34 6 38 0 3 -6 12 -8 20 -5 8
3 14 2 14 -3 0 -4 -69 -11 -152 -15 -380 -16 -1172 -45 -1176 -42 -3 4 115 19
158 20 14 1 30 5 37 9 7 4 24 5 38 1 14 -3 31 -2 38 4 6 6 23 10 37 9 21 0
223 27 365 49 22 3 56 8 75 10 174 20 280 35 307 44 18 6 36 9 40 7 5 -3 26
-1 48 3 22 4 43 8 48 9 4 0 7 -6 7 -14z m365 -152 c-83 -10 -97 -14 -86 -27 7
-9 7 -16 -1 -24 -9 -9 -8 -12 5 -12 9 0 17 7 17 15 0 9 6 12 16 8 8 -3 13 -12
10 -19 -3 -8 -1 -14 4 -14 6 0 10 -7 10 -15 0 -19 -16 -20 -23 -1 -7 17 -87
19 -87 3 0 -5 15 -7 33 -4 26 4 36 1 46 -15 11 -18 11 -20 -2 -15 -9 3 -25 -6
-40 -23 -26 -28 -26 -50 0 -29 7 7 25 13 39 15 23 2 25 0 19 -23 -3 -14 -2
-22 3 -19 6 3 15 -1 22 -9 7 -8 18 -15 26 -15 7 0 16 -5 20 -11 4 -7 0 -9 -12
-5 -11 3 -26 1 -34 -5 -13 -9 -13 -10 0 -8 36 4 61 -2 54 -12 -4 -7 3 -10 19
-7 15 1 26 -1 26 -7 0 -5 -7 -9 -15 -7 -8 2 -14 -4 -14 -11 0 -18 -24 -29 -36
-17 -13 13 -54 0 -54 -16 0 -8 8 -14 18 -14 15 -1 15 -2 -3 -16 -19 -14 -20
-13 -25 13 -6 34 -36 43 -45 14 -7 -23 -27 -29 -24 -8 4 33 -2 37 -22 18 -12
-11 -18 -25 -14 -31 4 -7 1 -16 -6 -21 -11 -7 -10 -11 6 -23 18 -13 21 -12 34
3 12 15 18 16 40 5 36 -17 80 -7 93 22 6 13 15 24 20 24 12 0 10 -18 -3 -25
-7 -5 -3 -14 10 -26 24 -22 32 -24 25 -6 -3 8 3 20 12 28 16 12 17 12 11 -4
-5 -14 -3 -16 10 -9 9 6 29 6 45 2 25 -8 28 -6 28 14 0 12 -6 28 -12 35 -9 9
-9 12 -1 7 6 -3 14 0 16 6 3 8 6 5 6 -6 1 -15 4 -16 15 -7 11 9 16 9 22 0 5
-8 3 -9 -6 -4 -10 6 -12 4 -7 -8 4 -11 2 -14 -9 -10 -9 3 -14 -2 -14 -16 0
-11 -9 -29 -21 -40 -15 -14 -17 -21 -8 -26 8 -6 10 -4 4 5 -6 10 -4 12 8 7 10
-3 17 -2 17 4 0 6 4 8 9 5 11 -7 45 30 37 42 -3 5 2 16 11 23 12 10 14 10 9 2
-4 -8 -2 -13 5 -13 7 0 5 -8 -7 -21 -22 -25 -161 -132 -184 -142 -8 -4 -33
-18 -55 -31 -46 -29 -123 -66 -136 -66 -5 0 -9 -4 -9 -10 0 -5 -6 -10 -12 -10
-7 0 -43 -15 -79 -33 -41 -20 -72 -30 -80 -25 -14 8 -230 110 -344 163 -73 34
-249 118 -495 237 -225 109 -433 209 -478 230 -32 15 -24 16 170 23 111 4 446
17 743 30 488 20 789 28 710 18z m-1195 -364 c217 -108 425 -210 461 -227 184
-86 350 -172 338 -177 -8 -2 -37 -13 -66 -23 -28 -11 -55 -16 -60 -12 -4 4
-37 23 -73 42 -57 31 -454 261 -598 346 -29 18 -54 32 -56 32 -2 0 -68 39
-147 86 -79 48 -164 98 -189 112 -55 30 -76 49 -35 30 17 -7 208 -101 425
-209z"/>
<path d="M266 1664 c-4 -10 -3 -20 2 -23 5 -3 29 -22 53 -42 24 -20 150 -121
279 -224 129 -103 241 -193 248 -199 18 -18 5 -97 -18 -103 -11 -3 -23 -31
-38 -97 -24 -102 -27 -130 -12 -121 6 3 10 15 10 26 0 23 17 25 42 2 10 -9 20
-14 22 -12 6 8 64 304 60 311 -2 3 -70 57 -150 120 -80 62 -174 136 -209 163
-122 98 -267 210 -275 213 -4 2 -10 -5 -14 -14z"/>
<path d="M0 1507 l0 -44 208 -98 c114 -54 296 -141 406 -192 109 -52 202 -91
206 -86 4 4 10 24 14 44 l6 36 -72 33 c-40 18 -115 53 -166 77 -52 23 -95 43
-97 43 -2 0 -41 18 -87 39 -147 70 -410 191 -414 191 -2 0 -4 -20 -4 -43z"/>
<path d="M3060 1416 c0 -3 26 -32 58 -65 62 -62 166 -136 181 -126 5 3 11 0
13 -6 6 -18 172 -88 180 -75 5 7 8 6 8 -4 0 -17 106 -49 230 -72 88 -15 372
-16 378 0 2 7 14 9 31 6 35 -7 175 14 179 26 2 6 12 10 22 10 47 0 405 138
361 140 -11 0 -11 3 -1 15 18 21 8 19 -115 -24 -361 -128 -751 -134 -1115 -19
-88 28 -302 127 -360 167 -37 26 -50 33 -50 27z"/>
<path d="M410 123 c-57 -4 -68 -8 -92 -34 -15 -16 -34 -29 -42 -29 -9 0 -16
-4 -16 -10 0 -18 58 -11 63 8 3 9 5 0 6 -20 l1 -38 69 0 69 0 11 48 c5 26 13
55 16 65 5 11 3 16 -6 15 -8 -1 -43 -3 -79 -5z"/>
</g>
</svg>
